# MagicaVoxel @ Ephtracy

# group
o right leg

# material
mtllib Head-5-right leg.mtl
usemtl palette

# normals
vn -1 0 0
vn 1 0 0
vn 0 0 1
vn 0 0 -1
vn 0 -1 0
vn 0 1 0

# texcoords
vt 0.0683594 0.5
vt 0.412109 0.5
vt 0.994141 0.5

# verts
v -0.7 0.7 -0.1
v -0.7 0.7 -0.2
v -0.7 0.9 -5.96046e-08
v -0.7 0.9 -0.1
v -0.7 4.3 -0.2
v -0.7 4.3 -0.3
v -0.7 4.4 -5.96046e-08
v -0.7 4.4 -0.3
v -0.6 0 0.5
v -0.6 0 -0.3
v -0.6 0.2 0.5
v -0.6 0.2 0.3
v -0.6 0.3 0.3
v -0.6 0.3 -5.96046e-08
v -0.6 0.4 -5.96046e-08
v -0.6 0.4 -0.3
v -0.6 0.6 -5.96046e-08
v -0.6 0.6 -0.4
v -0.6 0.7 -0.1
v -0.6 0.7 -0.2
v -0.6 0.8 0.0999999
v -0.6 0.8 -5.96046e-08
v -0.6 0.9 -5.96046e-08
v -0.6 0.9 -0.1
v -0.6 4.1 -0.4
v -0.6 4.1 -0.5
v -0.6 4.3 -0.2
v -0.6 4.3 -0.3
v -0.6 4.4 0.0999999
v -0.6 4.4 -5.96046e-08
v -0.6 4.4 -0.3
v -0.6 4.4 -0.5
v -0.5 0 0.6
v -0.5 0 0.5
v -0.5 0 -0.3
v -0.5 0 -0.4
v -0.5 0.2 0.6
v -0.5 0.2 0.5
v -0.5 0.2 0.4
v -0.5 0.2 0.3
v -0.5 0.3 0.4
v -0.5 0.3 0.3
v -0.5 0.3 0.0999999
v -0.5 0.3 -5.96046e-08
v -0.5 0.4 0.0999999
v -0.5 0.4 -5.96046e-08
v -0.5 0.4 -0.3
v -0.5 0.4 -0.4
v -0.5 0.6 0.0999999
v -0.5 0.6 -5.96046e-08
v -0.5 0.6 -0.3
v -0.5 0.6 -0.4
v -0.5 0.6 -0.5
v -0.5 0.8 0.0999999
v -0.5 0.8 -5.96046e-08
v -0.5 4.1 -0.4
v -0.5 4.1 -0.5
v -0.5 4.3 -0.5
v -0.5 4.3 -0.6
v -0.5 4.4 -0.5
v -0.5 4.4 -0.6
v -0.4 4.2 -0.5
v -0.4 4.2 -0.6
v -0.4 4.3 -0.5
v -0.4 4.3 -0.6
v -0.3 1.9 -0.1
v -0.3 1.9 -0.2
v -0.3 2.7 -0.1
v -0.3 2.7 -0.2
v -0.4 1.9 -0.1
v -0.4 1.9 -0.2
v -0.4 2.7 -0.1
v -0.4 2.7 -0.2
v -0.2 0 0.6
v -0.2 0 0.5
v -0.2 0 -0.3
v -0.2 0 -0.4
v -0.2 0.2 0.6
v -0.2 0.2 0.5
v -0.2 0.2 0.4
v -0.2 0.2 0.3
v -0.2 0.3 0.4
v -0.2 0.3 0.3
v -0.2 0.3 0.0999999
v -0.2 0.3 -5.96046e-08
v -0.2 0.4 0.0999999
v -0.2 0.4 -5.96046e-08
v -0.2 0.4 -0.3
v -0.2 0.4 -0.4
v -0.2 0.6 0.0999999
v -0.2 0.6 -5.96046e-08
v -0.2 0.6 -0.3
v -0.2 0.6 -0.5
v -0.2 4.2 0.0999999
v -0.2 4.2 -5.96046e-08
v -0.2 4.2 -0.3
v -0.2 4.2 -0.4
v -0.2 4.2 -0.5
v -0.2 4.2 -0.6
v -0.2 4.3 -0.4
v -0.2 4.3 -0.6
v -0.1 0 0.5
v -0.1 0 -0.3
v -0.1 0.2 0.5
v -0.1 0.2 0.3
v -0.1 0.3 0.3
v -0.1 0.3 -5.96046e-08
v -0.1 0.4 -5.96046e-08
v -0.1 0.4 -0.3
v -0.1 0.6 -5.96046e-08
v -0.1 0.6 -0.3
v -0.1 4.2 0.0999999
v -0.1 4.2 -5.96046e-08
v -0.1 4.2 -0.3
v -0.1 4.2 -0.4
v -0.1 4.3 0.0999999
v -0.1 4.3 -5.96046e-08
v -0.1 4.3 -0.3
v -0.1 4.3 -0.4
v -0.1 4.3 -0.5
v -0.1 4.3 -0.6
v -0.1 4.4 -0.5
v -0.1 4.4 -0.6
v 5.96046e-08 4.2 -5.96046e-08
v 5.96046e-08 4.2 -0.3
v 5.96046e-08 4.3 -5.96046e-08
v 5.96046e-08 4.3 -0.3
v 0.1 4.3 0.0999999
v 0.1 4.3 -0.5
v 0.1 4.4 0.0999999
v 0.1 4.4 -0.5
v -0.5 0 0.6
v -0.5 0.2 0.6
v -0.2 0 0.6
v -0.2 0.2 0.6
v -0.6 0 0.5
v -0.6 0.2 0.5
v -0.5 0 0.5
v -0.5 0.2 0.5
v -0.2 0 0.5
v -0.2 0.2 0.5
v -0.1 0 0.5
v -0.1 0.2 0.5
v -0.5 0.2 0.4
v -0.5 0.3 0.4
v -0.2 0.2 0.4
v -0.2 0.3 0.4
v -0.6 0.2 0.3
v -0.6 0.3 0.3
v -0.5 0.2 0.3
v -0.5 0.3 0.3
v -0.2 0.2 0.3
v -0.2 0.3 0.3
v -0.1 0.2 0.3
v -0.1 0.3 0.3
v -0.6 0.8 0.0999999
v -0.6 4.4 0.0999999
v -0.5 0.3 0.0999999
v -0.5 0.4 0.0999999
v -0.5 0.6 0.0999999
v -0.5 0.8 0.0999999
v -0.2 0.3 0.0999999
v -0.2 0.4 0.0999999
v -0.2 0.6 0.0999999
v -0.2 4.2 0.0999999
v -0.1 4.2 0.0999999
v -0.1 4.3 0.0999999
v 0.1 4.3 0.0999999
v 0.1 4.4 0.0999999
v -0.7 0.9 -5.96046e-08
v -0.7 4.4 -5.96046e-08
v -0.6 0.3 -5.96046e-08
v -0.6 0.4 -5.96046e-08
v -0.6 0.6 -5.96046e-08
v -0.6 0.8 -5.96046e-08
v -0.6 0.9 -5.96046e-08
v -0.6 4.4 -5.96046e-08
v -0.5 0.3 -5.96046e-08
v -0.5 0.4 -5.96046e-08
v -0.5 0.6 -5.96046e-08
v -0.5 0.8 -5.96046e-08
v -0.2 0.3 -5.96046e-08
v -0.2 0.4 -5.96046e-08
v -0.2 0.6 -5.96046e-08
v -0.2 4.2 -5.96046e-08
v -0.1 0.3 -5.96046e-08
v -0.1 0.4 -5.96046e-08
v -0.1 0.6 -5.96046e-08
v -0.1 4.2 -5.96046e-08
v -0.1 4.3 -5.96046e-08
v 5.96046e-08 4.2 -5.96046e-08
v 5.96046e-08 4.3 -5.96046e-08
v -0.7 0.7 -0.1
v -0.7 0.9 -0.1
v -0.6 0.7 -0.1
v -0.6 0.9 -0.1
v -0.4 1.9 -0.2
v -0.4 2.7 -0.2
v -0.3 1.9 -0.2
v -0.3 2.7 -0.2
v -0.4 1.9 -0.1
v -0.4 2.7 -0.1
v -0.3 1.9 -0.1
v -0.3 2.7 -0.1
v -0.7 0.7 -0.2
v -0.7 4.3 -0.2
v -0.6 0.7 -0.2
v -0.6 4.3 -0.2
v -0.7 4.3 -0.3
v -0.7 4.4 -0.3
v -0.6 0 -0.3
v -0.6 0.4 -0.3
v -0.6 4.3 -0.3
v -0.6 4.4 -0.3
v -0.5 0 -0.3
v -0.5 0.4 -0.3
v -0.5 0.6 -0.3
v -0.2 0 -0.3
v -0.2 0.4 -0.3
v -0.2 0.6 -0.3
v -0.2 4.2 -0.3
v -0.1 0 -0.3
v -0.1 0.4 -0.3
v -0.1 0.6 -0.3
v -0.1 4.2 -0.3
v -0.1 4.3 -0.3
v 5.96046e-08 4.2 -0.3
v 5.96046e-08 4.3 -0.3
v -0.6 0.6 -0.4
v -0.6 4.1 -0.4
v -0.5 0 -0.4
v -0.5 0.4 -0.4
v -0.5 0.6 -0.4
v -0.5 4.1 -0.4
v -0.2 0 -0.4
v -0.2 0.4 -0.4
v -0.2 4.2 -0.4
v -0.2 4.3 -0.4
v -0.1 4.2 -0.4
v -0.1 4.3 -0.4
v -0.6 4.1 -0.5
v -0.6 4.4 -0.5
v -0.5 0.6 -0.5
v -0.5 4.1 -0.5
v -0.5 4.3 -0.5
v -0.5 4.4 -0.5
v -0.4 4.2 -0.5
v -0.4 4.3 -0.5
v -0.2 0.6 -0.5
v -0.2 4.2 -0.5
v -0.1 4.3 -0.5
v -0.1 4.4 -0.5
v 0.1 4.3 -0.5
v 0.1 4.4 -0.5
v -0.5 4.3 -0.6
v -0.5 4.4 -0.6
v -0.4 4.2 -0.6
v -0.4 4.3 -0.6
v -0.2 4.2 -0.6
v -0.2 4.3 -0.6
v -0.1 4.3 -0.6
v -0.1 4.4 -0.6
v -0.5 0 0.6
v -0.2 0 0.6
v -0.6 0 0.5
v -0.5 0 0.5
v -0.2 0 0.5
v -0.1 0 0.5
v -0.4 0 0.4
v -0.3 0 0.4
v -0.3 0 0.3
v -0.2 0 0.3
v -0.3 0 0.0999999
v -0.2 0 0.0999999
v -0.4 0 -0.2
v -0.3 0 -0.2
v -0.6 0 -0.3
v -0.5 0 -0.3
v -0.2 0 -0.3
v -0.1 0 -0.3
v -0.5 0 -0.4
v -0.2 0 -0.4
v -0.5 0.6 0.0999999
v -0.2 0.6 0.0999999
v -0.6 0.6 -5.96046e-08
v -0.5 0.6 -5.96046e-08
v -0.2 0.6 -5.96046e-08
v -0.1 0.6 -5.96046e-08
v -0.5 0.6 -0.3
v -0.2 0.6 -0.3
v -0.1 0.6 -0.3
v -0.6 0.6 -0.4
v -0.5 0.6 -0.4
v -0.5 0.6 -0.5
v -0.2 0.6 -0.5
v -0.7 0.7 -0.1
v -0.6 0.7 -0.1
v -0.7 0.7 -0.2
v -0.6 0.7 -0.2
v -0.6 0.8 0.0999999
v -0.5 0.8 0.0999999
v -0.6 0.8 -5.96046e-08
v -0.5 0.8 -5.96046e-08
v -0.7 0.9 -5.96046e-08
v -0.6 0.9 -5.96046e-08
v -0.7 0.9 -0.1
v -0.6 0.9 -0.1
v -0.4 2.7 -0.1
v -0.3 2.7 -0.1
v -0.4 2.7 -0.2
v -0.3 2.7 -0.2
v -0.6 4.1 -0.4
v -0.5 4.1 -0.4
v -0.6 4.1 -0.5
v -0.5 4.1 -0.5
v -0.2 4.2 0.0999999
v -0.1 4.2 0.0999999
v -0.2 4.2 -5.96046e-08
v -0.1 4.2 -5.96046e-08
v 5.96046e-08 4.2 -5.96046e-08
v -0.2 4.2 -0.3
v -0.1 4.2 -0.3
v 5.96046e-08 4.2 -0.3
v -0.2 4.2 -0.4
v -0.1 4.2 -0.4
v -0.4 4.2 -0.5
v -0.2 4.2 -0.5
v -0.4 4.2 -0.6
v -0.2 4.2 -0.6
v -0.1 4.3 0.0999999
v 0.1 4.3 0.0999999
v -0.1 4.3 -5.96046e-08
v 5.96046e-08 4.3 -5.96046e-08
v -0.7 4.3 -0.2
v -0.6 4.3 -0.2
v -0.7 4.3 -0.3
v -0.6 4.3 -0.3
v -0.1 4.3 -0.3
v 5.96046e-08 4.3 -0.3
v -0.2 4.3 -0.4
v -0.1 4.3 -0.4
v -0.5 4.3 -0.5
v -0.4 4.3 -0.5
v -0.1 4.3 -0.5
v 0.1 4.3 -0.5
v -0.5 4.3 -0.6
v -0.4 4.3 -0.6
v -0.2 4.3 -0.6
v -0.1 4.3 -0.6
v -0.5 0.2 0.6
v -0.2 0.2 0.6
v -0.6 0.2 0.5
v -0.5 0.2 0.5
v -0.2 0.2 0.5
v -0.1 0.2 0.5
v -0.5 0.2 0.4
v -0.2 0.2 0.4
v -0.6 0.2 0.3
v -0.5 0.2 0.3
v -0.2 0.2 0.3
v -0.1 0.2 0.3
v -0.5 0.3 0.4
v -0.2 0.3 0.4
v -0.6 0.3 0.3
v -0.5 0.3 0.3
v -0.2 0.3 0.3
v -0.1 0.3 0.3
v -0.5 0.3 0.0999999
v -0.2 0.3 0.0999999
v -0.6 0.3 -5.96046e-08
v -0.5 0.3 -5.96046e-08
v -0.2 0.3 -5.96046e-08
v -0.1 0.3 -5.96046e-08
v -0.5 0.4 0.0999999
v -0.2 0.4 0.0999999
v -0.6 0.4 -5.96046e-08
v -0.5 0.4 -5.96046e-08
v -0.2 0.4 -5.96046e-08
v -0.1 0.4 -5.96046e-08
v -0.6 0.4 -0.3
v -0.5 0.4 -0.3
v -0.2 0.4 -0.3
v -0.1 0.4 -0.3
v -0.5 0.4 -0.4
v -0.2 0.4 -0.4
v -0.4 1.9 -0.1
v -0.3 1.9 -0.1
v -0.4 1.9 -0.2
v -0.3 1.9 -0.2
v -0.6 4.4 0.0999999
v 0.1 4.4 0.0999999
v -0.7 4.4 -5.96046e-08
v -0.6 4.4 -5.96046e-08
v -0.7 4.4 -0.3
v -0.6 4.4 -0.3
v -0.6 4.4 -0.5
v -0.5 4.4 -0.5
v -0.1 4.4 -0.5
v 0.1 4.4 -0.5
v -0.5 4.4 -0.6
v -0.1 4.4 -0.6

# faces
f 4/1/1 2/1/1 1/1/1
f 5/1/1 2/1/1 4/1/1
f 5/1/1 4/1/1 3/1/1
f 7/1/1 5/1/1 3/1/1
f 7/1/1 6/1/1 5/1/1
f 8/1/1 6/1/1 7/1/1
f 11/3/1 10/3/1 9/3/1
f 12/3/1 10/3/1 11/3/1
f 13/3/1 10/3/1 12/3/1
f 14/3/1 10/3/1 13/3/1
f 15/3/1 10/3/1 14/3/1
f 16/3/1 10/3/1 15/3/1
f 19/1/1 18/1/1 17/1/1
f 20/1/1 18/1/1 19/1/1
f 22/1/1 19/1/1 17/1/1
f 23/1/1 19/1/1 22/1/1
f 23/1/1 22/1/1 21/1/1
f 24/1/1 19/1/1 23/1/1
f 25/1/1 18/1/1 20/1/1
f 27/1/1 25/1/1 20/1/1
f 27/1/1 26/1/1 25/1/1
f 28/1/1 26/1/1 27/1/1
f 29/1/1 23/1/1 21/1/1
f 30/1/1 23/1/1 29/1/1
f 31/1/1 26/1/1 28/1/1
f 32/1/1 26/1/1 31/1/1
f 37/3/1 34/3/1 33/3/1
f 38/3/1 34/3/1 37/3/1
f 41/3/1 40/3/1 39/3/1
f 42/3/1 40/3/1 41/3/1
f 45/3/1 44/3/1 43/3/1
f 46/3/1 44/3/1 45/3/1
f 47/3/1 36/3/1 35/3/1
f 48/3/1 36/3/1 47/3/1
f 50/1/1 47/1/1 46/1/1
f 51/1/1 47/1/1 50/1/1
f 54/1/1 50/1/1 49/1/1
f 55/1/1 50/1/1 54/1/1
f 56/1/1 53/1/1 52/1/1
f 57/1/1 53/1/1 56/1/1
f 60/1/1 59/1/1 58/1/1
f 61/1/1 59/1/1 60/1/1
f 64/1/1 63/1/1 62/1/1
f 65/1/1 63/1/1 64/1/1
f 68/1/1 67/1/1 66/1/1
f 69/1/1 67/1/1 68/1/1
f 70/1/2 71/1/2 72/1/2
f 72/1/2 71/1/2 73/1/2
f 74/3/2 75/3/2 78/3/2
f 78/3/2 75/3/2 79/3/2
f 80/3/2 81/3/2 82/3/2
f 82/3/2 81/3/2 83/3/2
f 84/3/2 85/3/2 86/3/2
f 86/3/2 85/3/2 87/3/2
f 76/3/2 77/3/2 88/3/2
f 88/3/2 77/3/2 89/3/2
f 87/1/2 88/1/2 91/1/2
f 91/1/2 88/1/2 92/1/2
f 90/1/2 91/1/2 94/1/2
f 94/1/2 91/1/2 95/1/2
f 92/1/2 93/1/2 96/1/2
f 96/1/2 93/1/2 97/1/2
f 97/1/2 93/1/2 98/1/2
f 98/1/2 99/1/2 100/1/2
f 97/1/2 98/1/2 100/1/2
f 100/1/2 99/1/2 101/1/2
f 102/3/2 103/3/2 104/3/2
f 104/3/2 103/3/2 105/3/2
f 105/3/2 103/3/2 106/3/2
f 106/3/2 103/3/2 107/3/2
f 107/3/2 103/3/2 108/3/2
f 108/3/2 103/3/2 109/3/2
f 110/1/2 111/1/2 113/1/2
f 113/1/2 111/1/2 114/1/2
f 112/1/2 113/1/2 116/1/2
f 116/1/2 113/1/2 117/1/2
f 114/1/2 115/1/2 118/1/2
f 118/1/2 115/1/2 119/1/2
f 120/1/2 121/1/2 122/1/2
f 122/1/2 121/1/2 123/1/2
f 124/1/2 125/1/2 126/1/2
f 126/1/2 125/1/2 127/1/2
f 128/1/2 129/1/2 130/1/2
f 130/1/2 129/1/2 131/1/2
f 134/3/3 133/3/3 132/3/3
f 135/3/3 133/3/3 134/3/3
f 138/3/3 137/3/3 136/3/3
f 139/3/3 137/3/3 138/3/3
f 142/3/3 141/3/3 140/3/3
f 143/3/3 141/3/3 142/3/3
f 146/3/3 145/3/3 144/3/3
f 147/3/3 145/3/3 146/3/3
f 150/3/3 149/3/3 148/3/3
f 151/3/3 149/3/3 150/3/3
f 154/3/3 153/3/3 152/3/3
f 155/3/3 153/3/3 154/3/3
f 161/1/3 157/1/3 156/1/3
f 162/3/3 159/3/3 158/3/3
f 163/3/3 159/3/3 162/3/3
f 164/1/3 161/1/3 160/1/3
f 165/1/3 157/1/3 161/1/3
f 165/1/3 161/1/3 164/1/3
f 166/1/3 157/1/3 165/1/3
f 167/1/3 157/1/3 166/1/3
f 168/1/3 157/1/3 167/1/3
f 169/1/3 157/1/3 168/1/3
f 176/1/3 171/1/3 170/1/3
f 177/1/3 171/1/3 176/1/3
f 178/3/3 173/3/3 172/3/3
f 179/3/3 173/3/3 178/3/3
f 180/1/3 175/1/3 174/1/3
f 181/1/3 175/1/3 180/1/3
f 183/1/3 180/1/3 179/1/3
f 184/1/3 180/1/3 183/1/3
f 186/3/3 183/3/3 182/3/3
f 187/3/3 183/3/3 186/3/3
f 188/1/3 185/1/3 184/1/3
f 189/1/3 185/1/3 188/1/3
f 191/1/3 190/1/3 189/1/3
f 192/1/3 190/1/3 191/1/3
f 195/1/3 194/1/3 193/1/3
f 196/1/3 194/1/3 195/1/3
f 199/1/3 198/1/3 197/1/3
f 200/1/3 198/1/3 199/1/3
f 201/1/4 202/1/4 203/1/4
f 203/1/4 202/1/4 204/1/4
f 205/1/4 206/1/4 207/1/4
f 207/1/4 206/1/4 208/1/4
f 209/1/4 210/1/4 213/1/4
f 213/1/4 210/1/4 214/1/4
f 211/3/4 212/3/4 215/3/4
f 215/3/4 212/3/4 216/3/4
f 216/1/4 217/1/4 219/1/4
f 219/1/4 217/1/4 220/1/4
f 218/3/4 219/3/4 222/3/4
f 222/3/4 219/3/4 223/3/4
f 220/1/4 221/1/4 224/1/4
f 224/1/4 221/1/4 225/1/4
f 225/1/4 226/1/4 227/1/4
f 227/1/4 226/1/4 228/1/4
f 229/1/4 230/1/4 233/1/4
f 233/1/4 230/1/4 234/1/4
f 231/3/4 232/3/4 235/3/4
f 235/3/4 232/3/4 236/3/4
f 237/1/4 238/1/4 239/1/4
f 239/1/4 238/1/4 240/1/4
f 241/1/4 242/1/4 244/1/4
f 244/1/4 242/1/4 245/1/4
f 245/1/4 242/1/4 246/1/4
f 243/1/4 244/1/4 247/1/4
f 244/1/4 245/1/4 247/1/4
f 247/1/4 245/1/4 248/1/4
f 243/1/4 247/1/4 249/1/4
f 249/1/4 247/1/4 250/1/4
f 251/1/4 252/1/4 253/1/4
f 253/1/4 252/1/4 254/1/4
f 255/1/4 256/1/4 258/1/4
f 257/1/4 258/1/4 259/1/4
f 258/1/4 256/1/4 260/1/4
f 259/1/4 258/1/4 260/1/4
f 260/1/4 256/1/4 261/1/4
f 261/1/4 256/1/4 262/1/4
f 266/3/5 264/3/5 263/3/5
f 267/3/5 264/3/5 266/3/5
f 269/3/5 266/3/5 265/3/5
f 269/3/5 268/3/5 267/3/5
f 269/3/5 267/3/5 266/3/5
f 270/3/5 268/3/5 269/3/5
f 271/2/5 270/2/5 269/2/5
f 271/3/5 268/3/5 270/3/5
f 272/3/5 268/3/5 271/3/5
f 273/2/5 271/2/5 269/2/5
f 273/2/5 272/2/5 271/2/5
f 274/3/5 268/3/5 272/3/5
f 274/2/5 272/2/5 273/2/5
f 275/3/5 269/3/5 265/3/5
f 275/2/5 273/2/5 269/2/5
f 276/3/5 274/3/5 273/3/5
f 276/2/5 273/2/5 275/2/5
f 277/3/5 275/3/5 265/3/5
f 277/3/5 276/3/5 275/3/5
f 278/3/5 276/3/5 277/3/5
f 279/3/5 268/3/5 274/3/5
f 279/3/5 276/3/5 278/3/5
f 279/3/5 274/3/5 276/3/5
f 280/3/5 268/3/5 279/3/5
f 281/3/5 279/3/5 278/3/5
f 282/3/5 279/3/5 281/3/5
f 286/1/5 284/1/5 283/1/5
f 287/1/5 284/1/5 286/1/5
f 289/1/5 286/1/5 285/1/5
f 290/1/5 288/1/5 287/1/5
f 291/1/5 288/1/5 290/1/5
f 292/1/5 289/1/5 285/1/5
f 292/1/5 290/1/5 289/1/5
f 293/1/5 290/1/5 292/1/5
f 294/1/5 290/1/5 293/1/5
f 295/1/5 290/1/5 294/1/5
f 298/1/5 297/1/5 296/1/5
f 299/1/5 297/1/5 298/1/5
f 302/1/5 301/1/5 300/1/5
f 303/1/5 301/1/5 302/1/5
f 306/1/5 305/1/5 304/1/5
f 307/1/5 305/1/5 306/1/5
f 310/2/5 309/2/5 308/2/5
f 311/2/5 309/2/5 310/2/5
f 314/1/5 313/1/5 312/1/5
f 315/1/5 313/1/5 314/1/5
f 318/1/5 317/1/5 316/1/5
f 319/1/5 317/1/5 318/1/5
f 322/1/5 320/1/5 319/1/5
f 323/1/5 320/1/5 322/1/5
f 324/1/5 322/1/5 321/1/5
f 325/1/5 322/1/5 324/1/5
f 328/1/5 327/1/5 326/1/5
f 329/1/5 327/1/5 328/1/5
f 332/1/5 331/1/5 330/1/5
f 333/1/5 331/1/5 332/1/5
f 336/1/5 335/1/5 334/1/5
f 337/1/5 335/1/5 336/1/5
f 339/1/5 331/1/5 333/1/5
f 341/1/5 339/1/5 338/1/5
f 344/1/5 339/1/5 341/1/5
f 344/1/5 341/1/5 340/1/5
f 345/1/5 331/1/5 339/1/5
f 345/1/5 339/1/5 344/1/5
f 346/1/5 343/1/5 342/1/5
f 347/1/5 343/1/5 346/1/5
f 348/1/5 344/1/5 340/1/5
f 349/1/5 344/1/5 348/1/5
f 350/3/6 351/3/6 353/3/6
f 353/3/6 351/3/6 354/3/6
f 352/3/6 353/3/6 356/3/6
f 354/3/6 355/3/6 356/3/6
f 353/3/6 354/3/6 356/3/6
f 356/3/6 355/3/6 357/3/6
f 352/3/6 356/3/6 358/3/6
f 358/3/6 356/3/6 359/3/6
f 357/3/6 355/3/6 360/3/6
f 360/3/6 355/3/6 361/3/6
f 362/3/6 363/3/6 365/3/6
f 365/3/6 363/3/6 366/3/6
f 364/3/6 365/3/6 368/3/6
f 366/3/6 367/3/6 368/3/6
f 365/3/6 366/3/6 368/3/6
f 368/3/6 367/3/6 369/3/6
f 364/3/6 368/3/6 370/3/6
f 370/3/6 368/3/6 371/3/6
f 369/3/6 367/3/6 372/3/6
f 372/3/6 367/3/6 373/3/6
f 374/3/6 375/3/6 377/3/6
f 377/3/6 375/3/6 378/3/6
f 376/3/6 377/3/6 380/3/6
f 380/3/6 377/3/6 381/3/6
f 378/3/6 379/3/6 382/3/6
f 382/3/6 379/3/6 383/3/6
f 381/3/6 382/3/6 384/3/6
f 384/3/6 382/3/6 385/3/6
f 386/2/6 387/2/6 388/2/6
f 388/2/6 387/2/6 389/2/6
f 390/1/6 391/1/6 393/1/6
f 392/1/6 393/1/6 394/1/6
f 393/1/6 391/1/6 395/1/6
f 394/1/6 393/1/6 395/1/6
f 395/1/6 391/1/6 396/1/6
f 396/1/6 391/1/6 397/1/6
f 397/1/6 391/1/6 398/1/6
f 398/1/6 391/1/6 399/1/6
f 397/1/6 398/1/6 400/1/6
f 400/1/6 398/1/6 401/1/6
