# MagicaVoxel @ Ephtracy

# group
o LEFT LEG

# material
mtllib HEAD-4-LEFT LEG.mtl
usemtl palette

# normals
vn -1 0 0
vn 1 0 0
vn 0 0 1
vn 0 0 -1
vn 0 -1 0
vn 0 1 0

# texcoords
vt 0.00585938 0.5
vt 0.00976562 0.5
vt 0.0214844 0.5

# verts
v 0.2 0.8 0.0999999
v 0.2 0.8 -0.1
v 0.2 1 0.2
v 0.2 1 0.0999999
v 0.2 1 -0.1
v 0.2 1 -0.2
v 0.2 3.5 0.2
v 0.2 3.5 -0.2
v 0.3 -0.4 0.5
v 0.3 -0.4 -0.2
v 0.3 -0.1 0.5
v 0.3 -0.1 0.2
v 0.3 0.8 0.2
v 0.3 0.8 0.0999999
v 0.3 0.8 -0.1
v 0.3 0.8 -0.2
v 0.3 1 0.3
v 0.3 1 0.2
v 0.3 1 0.0999999
v 0.3 1 -0.1
v 0.3 1 -0.2
v 0.3 1 -0.3
v 0.3 3.5 0.2
v 0.3 3.5 -0.2
v 0.3 3.6 0.3
v 0.3 3.6 -0.3
v 0.4 -0.4 0.6
v 0.4 -0.4 0.5
v 0.4 -0.4 -0.2
v 0.4 -0.4 -0.3
v 0.4 -0.1 0.6
v 0.4 -0.1 0.5
v 0.4 -0.1 0.3
v 0.4 -0.1 0.2
v 0.4 0.8 0.3
v 0.4 0.8 0.2
v 0.4 0.8 -0.2
v 0.4 0.8 -0.3
v 0.4 1 0.4
v 0.4 1 0.3
v 0.4 1 0.2
v 0.4 1 -0.2
v 0.4 1 -0.3
v 0.4 1 -0.4
v 0.4 3.6 0.4
v 0.4 3.6 0.3
v 0.4 3.6 -0.3
v 0.4 3.6 -0.4
v 0.5 0.8 0.4
v 0.5 0.8 0.3
v 0.5 0.8 -0.3
v 0.5 0.8 -0.4
v 0.5 1 0.4
v 0.5 1 0.3
v 0.5 1 -0.3
v 0.5 1 -0.4
v 0.6 0.8 -0.3
v 0.6 0.8 -0.4
v 0.6 1 -0.3
v 0.6 1 -0.4
v 0.7 -0.4 0.6
v 0.7 -0.4 0.5
v 0.7 -0.4 -0.2
v 0.7 -0.4 -0.3
v 0.7 -0.1 0.6
v 0.7 -0.1 0.5
v 0.7 -0.1 0.3
v 0.7 -0.1 0.2
v 0.7 0.8 0.4
v 0.7 0.8 0.3
v 0.7 0.8 0.2
v 0.7 0.8 -0.2
v 0.7 0.8 -0.3
v 0.7 1 0.4
v 0.7 1 0.3
v 0.7 1 -0.2
v 0.7 1 -0.3
v 0.7 1 -0.4
v 0.7 3.6 -0.3
v 0.7 3.6 -0.4
v 0.8 -0.4 0.5
v 0.8 -0.4 -0.2
v 0.8 -0.1 0.5
v 0.8 -0.1 0.2
v 0.8 0.8 0.3
v 0.8 0.8 0.2
v 0.8 0.8 0.0999999
v 0.8 0.8 -0.1
v 0.8 0.8 -0.2
v 0.8 1 0.4
v 0.8 1 0.3
v 0.8 1 0.2
v 0.8 1 0.0999999
v 0.8 1 -0.1
v 0.8 1 -0.2
v 0.8 1 -0.3
v 0.8 3.6 0.4
v 0.8 3.6 0.2
v 0.8 3.6 -0.2
v 0.8 3.6 -0.3
v 0.9 0.8 0.0999999
v 0.9 0.8 -0.1
v 0.9 1 0.2
v 0.9 1 0.0999999
v 0.9 1 -0.1
v 0.9 1 -0.2
v 0.9 3.6 0.2
v 0.9 3.6 -0.2
v 0.4 -0.4 0.6
v 0.4 -0.1 0.6
v 0.7 -0.4 0.6
v 0.7 -0.1 0.6
v 0.3 -0.4 0.5
v 0.3 -0.1 0.5
v 0.4 -0.4 0.5
v 0.4 -0.1 0.5
v 0.7 -0.4 0.5
v 0.7 -0.1 0.5
v 0.8 -0.4 0.5
v 0.8 -0.1 0.5
v 0.4 1 0.4
v 0.4 3.6 0.4
v 0.5 0.8 0.4
v 0.5 1 0.4
v 0.7 0.8 0.4
v 0.7 1 0.4
v 0.8 1 0.4
v 0.8 3.6 0.4
v 0.3 1 0.3
v 0.3 3.6 0.3
v 0.4 -0.1 0.3
v 0.4 0.8 0.3
v 0.4 1 0.3
v 0.4 3.6 0.3
v 0.5 0.8 0.3
v 0.5 1 0.3
v 0.7 -0.1 0.3
v 0.7 0.8 0.3
v 0.7 1 0.3
v 0.8 0.8 0.3
v 0.8 1 0.3
v 0.2 1 0.2
v 0.2 3.5 0.2
v 0.3 -0.1 0.2
v 0.3 0.8 0.2
v 0.3 1 0.2
v 0.3 3.5 0.2
v 0.4 -0.1 0.2
v 0.4 0.8 0.2
v 0.4 1 0.2
v 0.7 -0.1 0.2
v 0.7 0.8 0.2
v 0.8 -0.1 0.2
v 0.8 0.8 0.2
v 0.8 1 0.2
v 0.8 3.6 0.2
v 0.9 1 0.2
v 0.9 3.6 0.2
v 0.2 0.8 0.0999999
v 0.2 1 0.0999999
v 0.3 0.8 0.0999999
v 0.3 1 0.0999999
v 0.8 0.8 0.0999999
v 0.8 1 0.0999999
v 0.9 0.8 0.0999999
v 0.9 1 0.0999999
v 0.2 0.8 -0.1
v 0.2 1 -0.1
v 0.3 0.8 -0.1
v 0.3 1 -0.1
v 0.8 0.8 -0.1
v 0.8 1 -0.1
v 0.9 0.8 -0.1
v 0.9 1 -0.1
v 0.2 1 -0.2
v 0.2 3.5 -0.2
v 0.3 -0.4 -0.2
v 0.3 0.8 -0.2
v 0.3 1 -0.2
v 0.3 3.5 -0.2
v 0.4 -0.4 -0.2
v 0.4 0.8 -0.2
v 0.4 1 -0.2
v 0.7 -0.4 -0.2
v 0.7 0.8 -0.2
v 0.7 1 -0.2
v 0.8 -0.4 -0.2
v 0.8 0.8 -0.2
v 0.8 1 -0.2
v 0.8 3.6 -0.2
v 0.9 1 -0.2
v 0.9 3.6 -0.2
v 0.3 1 -0.3
v 0.3 3.6 -0.3
v 0.4 -0.4 -0.3
v 0.4 0.8 -0.3
v 0.4 1 -0.3
v 0.4 3.6 -0.3
v 0.5 0.8 -0.3
v 0.5 1 -0.3
v 0.6 0.8 -0.3
v 0.6 1 -0.3
v 0.7 -0.4 -0.3
v 0.7 0.8 -0.3
v 0.7 1 -0.3
v 0.7 3.6 -0.3
v 0.8 1 -0.3
v 0.8 3.6 -0.3
v 0.4 1 -0.4
v 0.4 3.6 -0.4
v 0.5 0.8 -0.4
v 0.5 1 -0.4
v 0.6 0.8 -0.4
v 0.6 1 -0.4
v 0.7 1 -0.4
v 0.7 3.6 -0.4
v 0.4 -0.4 0.6
v 0.7 -0.4 0.6
v 0.3 -0.4 0.5
v 0.4 -0.4 0.5
v 0.7 -0.4 0.5
v 0.8 -0.4 0.5
v 0.3 -0.4 -0.2
v 0.4 -0.4 -0.2
v 0.7 -0.4 -0.2
v 0.8 -0.4 -0.2
v 0.4 -0.4 -0.3
v 0.7 -0.4 -0.3
v 0.5 0.8 0.4
v 0.7 0.8 0.4
v 0.5 0.8 0.3
v 0.7 0.8 0.3
v 0.8 0.8 0.3
v 0.7 0.8 0.2
v 0.8 0.8 0.2
v 0.2 0.8 0.0999999
v 0.3 0.8 0.0999999
v 0.8 0.8 0.0999999
v 0.9 0.8 0.0999999
v 0.2 0.8 -0.1
v 0.3 0.8 -0.1
v 0.8 0.8 -0.1
v 0.9 0.8 -0.1
v 0.5 0.8 -0.3
v 0.6 0.8 -0.3
v 0.5 0.8 -0.4
v 0.6 0.8 -0.4
v 0.4 1 0.4
v 0.5 1 0.4
v 0.7 1 0.4
v 0.8 1 0.4
v 0.3 1 0.3
v 0.4 1 0.3
v 0.5 1 0.3
v 0.7 1 0.3
v 0.8 1 0.3
v 0.2 1 0.2
v 0.3 1 0.2
v 0.4 1 0.2
v 0.8 1 0.2
v 0.9 1 0.2
v 0.2 1 0.0999999
v 0.3 1 0.0999999
v 0.8 1 0.0999999
v 0.9 1 0.0999999
v 0.2 1 -0.1
v 0.3 1 -0.1
v 0.8 1 -0.1
v 0.9 1 -0.1
v 0.2 1 -0.2
v 0.3 1 -0.2
v 0.4 1 -0.2
v 0.7 1 -0.2
v 0.8 1 -0.2
v 0.9 1 -0.2
v 0.3 1 -0.3
v 0.4 1 -0.3
v 0.5 1 -0.3
v 0.6 1 -0.3
v 0.7 1 -0.3
v 0.8 1 -0.3
v 0.4 1 -0.4
v 0.5 1 -0.4
v 0.6 1 -0.4
v 0.7 1 -0.4
v 0.4 -0.1 0.6
v 0.7 -0.1 0.6
v 0.3 -0.1 0.5
v 0.4 -0.1 0.5
v 0.7 -0.1 0.5
v 0.8 -0.1 0.5
v 0.4 -0.1 0.3
v 0.7 -0.1 0.3
v 0.3 -0.1 0.2
v 0.4 -0.1 0.2
v 0.7 -0.1 0.2
v 0.8 -0.1 0.2
v 0.2 3.5 0.2
v 0.3 3.5 0.2
v 0.2 3.5 -0.2
v 0.3 3.5 -0.2
v 0.4 3.6 0.4
v 0.8 3.6 0.4
v 0.3 3.6 0.3
v 0.4 3.6 0.3
v 0.8 3.6 0.2
v 0.9 3.6 0.2
v 0.8 3.6 -0.2
v 0.9 3.6 -0.2
v 0.3 3.6 -0.3
v 0.4 3.6 -0.3
v 0.7 3.6 -0.3
v 0.8 3.6 -0.3
v 0.4 3.6 -0.4
v 0.7 3.6 -0.4

# faces
f 4/2/1 2/2/1 1/2/1
f 5/2/1 2/2/1 4/2/1
f 7/2/1 4/2/1 3/2/1
f 7/2/1 6/2/1 5/2/1
f 7/2/1 5/2/1 4/2/1
f 8/2/1 6/2/1 7/2/1
f 11/1/1 10/1/1 9/1/1
f 12/1/1 10/1/1 11/1/1
f 13/1/1 10/1/1 12/1/1
f 14/1/1 10/1/1 13/1/1
f 15/1/1 10/1/1 14/1/1
f 16/1/1 10/1/1 15/1/1
f 18/2/1 14/2/1 13/2/1
f 19/2/1 14/2/1 18/2/1
f 20/2/1 16/2/1 15/2/1
f 21/2/1 16/2/1 20/2/1
f 23/2/1 18/2/1 17/2/1
f 24/2/1 22/2/1 21/2/1
f 25/2/1 23/2/1 17/2/1
f 25/2/1 24/2/1 23/2/1
f 26/2/1 22/2/1 24/2/1
f 26/2/1 24/2/1 25/2/1
f 31/1/1 28/1/1 27/1/1
f 32/1/1 28/1/1 31/1/1
f 35/1/1 34/1/1 33/1/1
f 36/1/1 34/1/1 35/1/1
f 37/1/1 30/1/1 29/1/1
f 38/1/1 30/1/1 37/1/1
f 40/2/1 36/2/1 35/2/1
f 41/2/1 36/2/1 40/2/1
f 42/2/1 38/2/1 37/2/1
f 43/2/1 38/2/1 42/2/1
f 45/2/1 40/2/1 39/2/1
f 46/2/1 40/2/1 45/2/1
f 47/2/1 44/2/1 43/2/1
f 48/2/1 44/2/1 47/2/1
f 53/2/1 50/2/1 49/2/1
f 54/2/1 50/2/1 53/2/1
f 55/2/1 52/2/1 51/2/1
f 56/2/1 52/2/1 55/2/1
f 57/2/2 58/2/2 59/2/2
f 59/2/2 58/2/2 60/2/2
f 61/1/2 62/1/2 65/1/2
f 65/1/2 62/1/2 66/1/2
f 67/1/2 68/1/2 70/1/2
f 70/1/2 68/1/2 71/1/2
f 63/1/2 64/1/2 72/1/2
f 72/1/2 64/1/2 73/1/2
f 69/2/2 70/2/2 74/2/2
f 74/2/2 70/2/2 75/2/2
f 72/2/2 73/2/2 76/2/2
f 76/2/2 73/2/2 77/2/2
f 77/2/2 78/2/2 79/2/2
f 79/2/2 78/2/2 80/2/2
f 81/1/2 82/1/2 83/1/2
f 83/1/2 82/1/2 84/1/2
f 84/1/2 82/1/2 86/1/2
f 86/1/2 82/1/2 87/1/2
f 87/1/2 82/1/2 88/1/2
f 88/1/2 82/1/2 89/1/2
f 85/2/2 86/2/2 91/2/2
f 86/2/2 87/2/2 91/2/2
f 91/2/2 87/2/2 92/2/2
f 92/2/2 87/2/2 93/2/2
f 88/2/2 89/2/2 94/2/2
f 94/2/2 89/2/2 95/2/2
f 90/2/2 91/2/2 97/2/2
f 91/2/2 92/2/2 97/2/2
f 97/2/2 92/2/2 98/2/2
f 95/2/2 96/2/2 99/2/2
f 99/2/2 96/2/2 100/2/2
f 101/2/2 102/2/2 104/2/2
f 104/2/2 102/2/2 105/2/2
f 103/2/2 104/2/2 107/2/2
f 105/2/2 106/2/2 107/2/2
f 104/2/2 105/2/2 107/2/2
f 107/2/2 106/2/2 108/2/2
f 111/1/3 110/1/3 109/1/3
f 112/1/3 110/1/3 111/1/3
f 115/1/3 114/1/3 113/1/3
f 116/1/3 114/1/3 115/1/3
f 119/1/3 118/1/3 117/1/3
f 120/1/3 118/1/3 119/1/3
f 124/2/3 122/2/3 121/2/3
f 125/2/3 124/2/3 123/2/3
f 126/2/3 122/2/3 124/2/3
f 126/2/3 124/2/3 125/2/3
f 127/2/3 122/2/3 126/2/3
f 128/2/3 122/2/3 127/2/3
f 133/2/3 130/2/3 129/2/3
f 134/2/3 130/2/3 133/2/3
f 135/1/3 132/1/3 131/1/3
f 135/2/3 133/2/3 132/2/3
f 136/2/3 133/2/3 135/2/3
f 137/1/3 135/1/3 131/1/3
f 138/1/3 135/1/3 137/1/3
f 140/2/3 139/2/3 138/2/3
f 141/2/3 139/2/3 140/2/3
f 146/2/3 143/2/3 142/2/3
f 147/2/3 143/2/3 146/2/3
f 148/1/3 145/1/3 144/1/3
f 149/2/3 146/2/3 145/2/3
f 149/1/3 145/1/3 148/1/3
f 150/2/3 146/2/3 149/2/3
f 153/1/3 152/1/3 151/1/3
f 154/1/3 152/1/3 153/1/3
f 157/2/3 156/2/3 155/2/3
f 158/2/3 156/2/3 157/2/3
f 161/2/3 160/2/3 159/2/3
f 162/2/3 160/2/3 161/2/3
f 165/2/3 164/2/3 163/2/3
f 166/2/3 164/2/3 165/2/3
f 167/2/4 168/2/4 169/2/4
f 169/2/4 168/2/4 170/2/4
f 171/2/4 172/2/4 173/2/4
f 173/2/4 172/2/4 174/2/4
f 175/2/4 176/2/4 179/2/4
f 179/2/4 176/2/4 180/2/4
f 177/1/4 178/1/4 181/1/4
f 178/2/4 179/2/4 182/2/4
f 181/1/4 178/1/4 182/1/4
f 182/2/4 179/2/4 183/2/4
f 184/1/4 185/1/4 187/1/4
f 185/2/4 186/2/4 188/2/4
f 187/1/4 185/1/4 188/1/4
f 188/2/4 186/2/4 189/2/4
f 189/2/4 190/2/4 191/2/4
f 191/2/4 190/2/4 192/2/4
f 193/2/4 194/2/4 197/2/4
f 197/2/4 194/2/4 198/2/4
f 195/1/4 196/1/4 199/1/4
f 196/2/4 197/2/4 199/2/4
f 199/2/4 197/2/4 200/2/4
f 195/1/4 199/1/4 201/1/4
f 195/1/4 201/1/4 203/1/4
f 201/2/4 202/2/4 204/2/4
f 203/1/4 201/1/4 204/1/4
f 204/2/4 202/2/4 205/2/4
f 205/2/4 206/2/4 207/2/4
f 207/2/4 206/2/4 208/2/4
f 209/2/4 210/2/4 212/2/4
f 211/2/4 212/2/4 213/2/4
f 212/2/4 210/2/4 214/2/4
f 213/2/4 212/2/4 214/2/4
f 214/2/4 210/2/4 215/2/4
f 215/2/4 210/2/4 216/2/4
f 220/1/5 218/1/5 217/1/5
f 221/1/5 218/1/5 220/1/5
f 223/1/5 220/1/5 219/1/5
f 223/1/5 222/1/5 221/1/5
f 223/1/5 221/1/5 220/1/5
f 224/1/5 222/1/5 223/1/5
f 225/1/5 222/1/5 224/1/5
f 226/1/5 222/1/5 225/1/5
f 227/1/5 225/1/5 224/1/5
f 228/1/5 225/1/5 227/1/5
f 231/2/5 230/2/5 229/2/5
f 232/2/5 230/2/5 231/2/5
f 234/2/5 233/2/5 232/2/5
f 235/2/5 233/2/5 234/2/5
f 240/2/5 237/2/5 236/2/5
f 241/2/5 237/2/5 240/2/5
f 242/2/5 239/2/5 238/2/5
f 243/2/5 239/2/5 242/2/5
f 246/2/5 245/2/5 244/2/5
f 247/2/5 245/2/5 246/2/5
f 253/2/5 249/2/5 248/2/5
f 254/2/5 249/2/5 253/2/5
f 255/2/5 251/2/5 250/2/5
f 256/2/5 251/2/5 255/2/5
f 258/2/5 253/2/5 252/2/5
f 259/2/5 253/2/5 258/2/5
f 262/2/5 258/2/5 257/2/5
f 263/2/5 258/2/5 262/2/5
f 264/2/5 261/2/5 260/2/5
f 265/2/5 261/2/5 264/2/5
f 270/2/5 267/2/5 266/2/5
f 271/2/5 267/2/5 270/2/5
f 274/2/5 269/2/5 268/2/5
f 275/2/5 269/2/5 274/2/5
f 276/2/5 272/2/5 271/2/5
f 277/2/5 272/2/5 276/2/5
f 280/2/5 274/2/5 273/2/5
f 281/2/5 274/2/5 280/2/5
f 282/2/5 278/2/5 277/2/5
f 283/2/5 278/2/5 282/2/5
f 284/2/5 280/2/5 279/2/5
f 285/2/5 280/2/5 284/2/5
f 286/1/6 287/1/6 289/1/6
f 289/1/6 287/1/6 290/1/6
f 288/1/6 289/1/6 292/1/6
f 290/1/6 291/1/6 292/1/6
f 289/1/6 290/1/6 292/1/6
f 292/1/6 291/1/6 293/1/6
f 288/1/6 292/1/6 294/1/6
f 294/1/6 292/1/6 295/1/6
f 293/1/6 291/1/6 296/1/6
f 296/1/6 291/1/6 297/1/6
f 298/2/6 299/2/6 300/2/6
f 300/2/6 299/2/6 301/2/6
f 302/2/6 303/2/6 305/2/6
f 305/2/6 303/2/6 306/2/6
f 304/2/6 305/2/6 306/2/6
f 304/2/6 306/2/6 308/2/6
f 306/2/6 307/2/6 308/2/6
f 308/2/6 307/2/6 309/2/6
f 304/2/6 308/2/6 310/2/6
f 310/2/6 308/2/6 311/2/6
f 311/2/6 308/2/6 312/2/6
f 312/2/6 308/2/6 313/2/6
f 311/2/6 312/2/6 314/2/6
f 314/2/6 312/2/6 315/2/6
