# MagicaVoxel @ Ephtracy

# group
o LEFT ARM

# material
mtllib HEAD-2-LEFT ARM.mtl
usemtl palette

# normals
vn -1 0 0
vn 1 0 0
vn 0 0 1
vn 0 0 -1
vn 0 -1 0
vn 0 1 0

# texcoords
vt 0.0175781 0.5
vt 0.0214844 0.5

# verts
v 0.9 3.8 -5.96046e-08
v 0.9 3.8 -0.2
v 0.9 4.1 0.0999999
v 0.9 4.1 -5.96046e-08
v 0.9 4.1 -0.2
v 0.9 4.1 -0.3
v 0.9 6.2 0.2
v 0.9 6.2 0.0999999
v 0.9 6.2 -0.3
v 0.9 6.2 -0.4
v 0.9 6.8 0.2
v 0.9 6.8 -0.4
v 1 3 0.0999999
v 1 3 -0.3
v 1 3.1 0.0999999
v 1 3.1 -0.3
v 1 3.2 0.2
v 1 3.2 0.0999999
v 1 3.3 0.0999999
v 1 3.3 -5.96046e-08
v 1 3.6 0.2
v 1 3.6 -5.96046e-08
v 1 3.7 -5.96046e-08
v 1 3.7 -0.2
v 1 3.8 0.0999999
v 1 3.8 -5.96046e-08
v 1 3.8 -0.2
v 1 3.8 -0.3
v 1 4.1 0.2
v 1 4.1 0.0999999
v 1 4.1 -5.96046e-08
v 1 4.1 -0.2
v 1 4.1 -0.3
v 1 4.1 -0.4
v 1 6.2 0.2
v 1 6.2 0.0999999
v 1 6.2 -0.3
v 1 6.2 -0.4
v 1.1 2.9 0.0999999
v 1.1 2.9 -0.3
v 1.1 3 0.0999999
v 1.1 3 -0.3
v 1.1 3.1 0.0999999
v 1.1 3.1 -0.3
v 1.1 3.2 0.0999999
v 1.1 3.3 0.0999999
v 1.1 3.3 -5.96046e-08
v 1.1 3.6 0.0999999
v 1.1 3.6 -5.96046e-08
v 1.1 3.7 -5.96046e-08
v 1.1 3.7 -0.2
v 1.1 3.8 0.2
v 1.1 3.8 0.0999999
v 1.1 3.8 -5.96046e-08
v 1.1 3.8 -0.2
v 1.1 3.8 -0.3
v 1.1 3.8 -0.4
v 1.1 4.1 0.2
v 1.1 4.1 0.0999999
v 1.1 4.1 -0.3
v 1.1 4.1 -0.4
v 1.1 3.2 0.2
v 1.1 3.2 0.0999999
v 1.1 3.4 0.2
v 1.1 3.4 0.0999999
v 1.1 6.7 0.2
v 1.1 6.7 0.0999999
v 1.1 6.7 -0.3
v 1.1 6.7 -0.4
v 1.1 6.8 0.2
v 1.1 6.8 0.0999999
v 1.1 6.8 -0.3
v 1.1 6.8 -0.4
v 1.2 3.4 0.2
v 1.2 3.4 0.0999999
v 1.2 3.6 0.2
v 1.2 3.6 0.0999999
v 1.3 2.9 0.0999999
v 1.3 2.9 -0.3
v 1.3 3 0.0999999
v 1.3 3 -0.3
v 1.3 3.4 0.0999999
v 1.3 3.4 -5.96046e-08
v 1.3 3.4 -0.2
v 1.3 3.4 -0.3
v 1.3 3.8 0.2
v 1.3 3.8 0.0999999
v 1.3 3.8 -5.96046e-08
v 1.3 3.8 -0.2
v 1.3 3.8 -0.3
v 1.3 3.8 -0.4
v 1.3 4.1 0.2
v 1.3 4.1 0.0999999
v 1.3 4.1 -0.3
v 1.3 4.1 -0.4
v 1.3 6.5 0.2
v 1.3 6.5 0.0999999
v 1.3 6.5 -0.3
v 1.3 6.5 -0.4
v 1.3 6.7 0.2
v 1.3 6.7 0.0999999
v 1.3 6.7 -0.3
v 1.3 6.7 -0.4
v 1.3 6.8 0.0999999
v 1.3 6.8 -0.3
v 1.4 3 0.0999999
v 1.4 3 -0.3
v 1.4 3.4 0.0999999
v 1.4 3.4 -5.96046e-08
v 1.4 3.4 -0.2
v 1.4 3.4 -0.3
v 1.4 3.8 0.0999999
v 1.4 3.8 -5.96046e-08
v 1.4 3.8 -0.2
v 1.4 3.8 -0.3
v 1.4 4.1 0.2
v 1.4 4.1 0.0999999
v 1.4 4.1 -5.96046e-08
v 1.4 4.1 -0.2
v 1.4 4.1 -0.3
v 1.4 4.1 -0.4
v 1.4 6.5 0.2
v 1.4 6.5 0.0999999
v 1.4 6.5 -0.3
v 1.4 6.5 -0.4
v 1.4 6.7 0.0999999
v 1.4 6.7 -0.3
v 1.5 3.8 -5.96046e-08
v 1.5 3.8 -0.2
v 1.5 4.1 0.0999999
v 1.5 4.1 -5.96046e-08
v 1.5 4.1 -0.2
v 1.5 4.1 -0.3
v 1.5 6.5 0.0999999
v 1.5 6.5 -0.3
v 0.9 6.2 0.2
v 0.9 6.8 0.2
v 1 3.2 0.2
v 1 3.6 0.2
v 1 4.1 0.2
v 1 6.2 0.2
v 1.1 3.2 0.2
v 1.1 3.4 0.2
v 1.1 3.8 0.2
v 1.1 4.1 0.2
v 1.1 6.7 0.2
v 1.1 6.8 0.2
v 1.2 3.4 0.2
v 1.2 3.6 0.2
v 1.3 3.8 0.2
v 1.3 4.1 0.2
v 1.3 6.5 0.2
v 1.3 6.7 0.2
v 1.4 4.1 0.2
v 1.4 6.5 0.2
v 0.9 4.1 0.0999999
v 0.9 6.2 0.0999999
v 1 3 0.0999999
v 1 3.1 0.0999999
v 1 3.8 0.0999999
v 1 4.1 0.0999999
v 1 6.2 0.0999999
v 1.1 2.9 0.0999999
v 1.1 3 0.0999999
v 1.1 3.1 0.0999999
v 1.1 3.2 0.0999999
v 1.1 3.4 0.0999999
v 1.1 3.6 0.0999999
v 1.1 3.8 0.0999999
v 1.1 4.1 0.0999999
v 1.1 6.7 0.0999999
v 1.1 6.8 0.0999999
v 1.2 3.4 0.0999999
v 1.2 3.6 0.0999999
v 1.3 2.9 0.0999999
v 1.3 3 0.0999999
v 1.3 3.4 0.0999999
v 1.3 3.8 0.0999999
v 1.3 4.1 0.0999999
v 1.3 6.5 0.0999999
v 1.3 6.7 0.0999999
v 1.3 6.8 0.0999999
v 1.4 3 0.0999999
v 1.4 3.4 0.0999999
v 1.4 3.8 0.0999999
v 1.4 4.1 0.0999999
v 1.4 6.5 0.0999999
v 1.4 6.7 0.0999999
v 1.5 4.1 0.0999999
v 1.5 6.5 0.0999999
v 0.9 3.8 -5.96046e-08
v 0.9 4.1 -5.96046e-08
v 1 3.7 -5.96046e-08
v 1 3.8 -5.96046e-08
v 1 4.1 -5.96046e-08
v 1.1 3.7 -5.96046e-08
v 1.1 3.8 -5.96046e-08
v 1.3 3.4 -5.96046e-08
v 1.3 3.8 -5.96046e-08
v 1.4 3.4 -5.96046e-08
v 1.4 3.8 -5.96046e-08
v 1.4 4.1 -5.96046e-08
v 1.5 3.8 -5.96046e-08
v 1.5 4.1 -5.96046e-08
v 1 3.2 0.0999999
v 1 3.3 0.0999999
v 1.1 3.2 0.0999999
v 1.1 3.3 0.0999999
v 1 3.3 -5.96046e-08
v 1 3.6 -5.96046e-08
v 1.1 3.3 -5.96046e-08
v 1.1 3.6 -5.96046e-08
v 0.9 3.8 -0.2
v 0.9 4.1 -0.2
v 1 3.7 -0.2
v 1 3.8 -0.2
v 1 4.1 -0.2
v 1.1 3.7 -0.2
v 1.1 3.8 -0.2
v 1.3 3.4 -0.2
v 1.3 3.8 -0.2
v 1.4 3.4 -0.2
v 1.4 3.8 -0.2
v 1.4 4.1 -0.2
v 1.5 3.8 -0.2
v 1.5 4.1 -0.2
v 0.9 4.1 -0.3
v 0.9 6.2 -0.3
v 1 3 -0.3
v 1 3.1 -0.3
v 1 3.8 -0.3
v 1 4.1 -0.3
v 1 6.2 -0.3
v 1.1 2.9 -0.3
v 1.1 3 -0.3
v 1.1 3.1 -0.3
v 1.1 3.8 -0.3
v 1.1 4.1 -0.3
v 1.1 6.7 -0.3
v 1.1 6.8 -0.3
v 1.3 2.9 -0.3
v 1.3 3 -0.3
v 1.3 3.4 -0.3
v 1.3 3.8 -0.3
v 1.3 4.1 -0.3
v 1.3 6.5 -0.3
v 1.3 6.7 -0.3
v 1.3 6.8 -0.3
v 1.4 3 -0.3
v 1.4 3.4 -0.3
v 1.4 3.8 -0.3
v 1.4 4.1 -0.3
v 1.4 6.5 -0.3
v 1.4 6.7 -0.3
v 1.5 4.1 -0.3
v 1.5 6.5 -0.3
v 0.9 6.2 -0.4
v 0.9 6.8 -0.4
v 1 4.1 -0.4
v 1 6.2 -0.4
v 1.1 3.8 -0.4
v 1.1 4.1 -0.4
v 1.1 6.7 -0.4
v 1.1 6.8 -0.4
v 1.3 3.8 -0.4
v 1.3 4.1 -0.4
v 1.3 6.5 -0.4
v 1.3 6.7 -0.4
v 1.4 4.1 -0.4
v 1.4 6.5 -0.4
v 1.1 2.9 0.0999999
v 1.3 2.9 0.0999999
v 1.1 2.9 -0.3
v 1.3 2.9 -0.3
v 1 3 0.0999999
v 1.1 3 0.0999999
v 1.3 3 0.0999999
v 1.4 3 0.0999999
v 1 3 -0.3
v 1.1 3 -0.3
v 1.3 3 -0.3
v 1.4 3 -0.3
v 1 3.2 0.2
v 1.1 3.2 0.2
v 1 3.2 0.0999999
v 1.1 3.2 0.0999999
v 1 3.3 0.0999999
v 1.1 3.3 0.0999999
v 1 3.3 -5.96046e-08
v 1.1 3.3 -5.96046e-08
v 1.1 3.4 0.2
v 1.2 3.4 0.2
v 1.1 3.4 0.0999999
v 1.2 3.4 0.0999999
v 1 3.7 -5.96046e-08
v 1.1 3.7 -5.96046e-08
v 1 3.7 -0.2
v 1.1 3.7 -0.2
v 1.1 3.8 0.2
v 1.3 3.8 0.2
v 1 3.8 0.0999999
v 1.1 3.8 0.0999999
v 1.3 3.8 0.0999999
v 1.4 3.8 0.0999999
v 0.9 3.8 -5.96046e-08
v 1 3.8 -5.96046e-08
v 1.1 3.8 -5.96046e-08
v 1.3 3.8 -5.96046e-08
v 1.4 3.8 -5.96046e-08
v 1.5 3.8 -5.96046e-08
v 0.9 3.8 -0.2
v 1 3.8 -0.2
v 1.1 3.8 -0.2
v 1.3 3.8 -0.2
v 1.4 3.8 -0.2
v 1.5 3.8 -0.2
v 1 3.8 -0.3
v 1.1 3.8 -0.3
v 1.3 3.8 -0.3
v 1.4 3.8 -0.3
v 1.1 3.8 -0.4
v 1.3 3.8 -0.4
v 1 4.1 0.2
v 1.1 4.1 0.2
v 1.3 4.1 0.2
v 1.4 4.1 0.2
v 0.9 4.1 0.0999999
v 1 4.1 0.0999999
v 1.1 4.1 0.0999999
v 1.3 4.1 0.0999999
v 1.4 4.1 0.0999999
v 1.5 4.1 0.0999999
v 0.9 4.1 -5.96046e-08
v 1 4.1 -5.96046e-08
v 1.4 4.1 -5.96046e-08
v 1.5 4.1 -5.96046e-08
v 0.9 4.1 -0.2
v 1 4.1 -0.2
v 1.4 4.1 -0.2
v 1.5 4.1 -0.2
v 0.9 4.1 -0.3
v 1 4.1 -0.3
v 1.1 4.1 -0.3
v 1.3 4.1 -0.3
v 1.4 4.1 -0.3
v 1.5 4.1 -0.3
v 1 4.1 -0.4
v 1.1 4.1 -0.4
v 1.3 4.1 -0.4
v 1.4 4.1 -0.4
v 0.9 6.2 0.2
v 1 6.2 0.2
v 0.9 6.2 0.0999999
v 1 6.2 0.0999999
v 0.9 6.2 -0.3
v 1 6.2 -0.3
v 0.9 6.2 -0.4
v 1 6.2 -0.4
v 1 3.1 0.0999999
v 1.1 3.1 0.0999999
v 1 3.1 -0.3
v 1.1 3.1 -0.3
v 1.3 3.4 0.0999999
v 1.4 3.4 0.0999999
v 1.3 3.4 -5.96046e-08
v 1.4 3.4 -5.96046e-08
v 1.3 3.4 -0.2
v 1.4 3.4 -0.2
v 1.3 3.4 -0.3
v 1.4 3.4 -0.3
v 1 3.6 0.2
v 1.2 3.6 0.2
v 1.1 3.6 0.0999999
v 1.2 3.6 0.0999999
v 1 3.6 -5.96046e-08
v 1.1 3.6 -5.96046e-08
v 1.3 6.5 0.2
v 1.4 6.5 0.2
v 1.3 6.5 0.0999999
v 1.4 6.5 0.0999999
v 1.5 6.5 0.0999999
v 1.3 6.5 -0.3
v 1.4 6.5 -0.3
v 1.5 6.5 -0.3
v 1.3 6.5 -0.4
v 1.4 6.5 -0.4
v 1.1 6.7 0.2
v 1.3 6.7 0.2
v 1.1 6.7 0.0999999
v 1.3 6.7 0.0999999
v 1.4 6.7 0.0999999
v 1.1 6.7 -0.3
v 1.3 6.7 -0.3
v 1.4 6.7 -0.3
v 1.1 6.7 -0.4
v 1.3 6.7 -0.4
v 0.9 6.8 0.2
v 1.1 6.8 0.2
v 1.1 6.8 0.0999999
v 1.3 6.8 0.0999999
v 1.1 6.8 -0.3
v 1.3 6.8 -0.3
v 0.9 6.8 -0.4
v 1.1 6.8 -0.4

# faces
f 4/1/1 2/1/1 1/1/1
f 5/1/1 2/1/1 4/1/1
f 8/1/1 4/1/1 3/1/1
f 8/1/1 6/1/1 5/1/1
f 8/1/1 5/1/1 4/1/1
f 9/1/1 6/1/1 8/1/1
f 11/1/1 8/1/1 7/1/1
f 11/1/1 10/1/1 9/1/1
f 11/1/1 9/1/1 8/1/1
f 12/1/1 10/1/1 11/1/1
f 15/2/1 14/2/1 13/2/1
f 16/2/1 14/2/1 15/2/1
f 19/2/1 18/2/1 17/2/1
f 21/2/1 19/2/1 17/2/1
f 21/2/1 20/2/1 19/2/1
f 22/2/1 20/2/1 21/2/1
f 26/2/1 24/2/1 23/2/1
f 27/2/1 24/2/1 26/2/1
f 30/1/1 26/1/1 25/1/1
f 31/1/1 26/1/1 30/1/1
f 32/1/1 28/1/1 27/1/1
f 33/1/1 28/1/1 32/1/1
f 35/1/1 30/1/1 29/1/1
f 36/1/1 30/1/1 35/1/1
f 37/1/1 34/1/1 33/1/1
f 38/1/1 34/1/1 37/1/1
f 41/2/1 40/2/1 39/2/1
f 42/2/1 40/2/1 41/2/1
f 45/2/1 44/2/1 43/2/1
f 46/2/1 44/2/1 45/2/1
f 47/2/1 44/2/1 46/2/1
f 49/2/1 44/2/1 47/2/1
f 50/2/1 44/2/1 49/2/1
f 50/2/1 49/2/1 48/2/1
f 51/2/1 44/2/1 50/2/1
f 53/2/1 50/2/1 48/2/1
f 54/2/1 50/2/1 53/2/1
f 55/2/1 44/2/1 51/2/1
f 56/2/1 44/2/1 55/2/1
f 58/1/1 53/1/1 52/1/1
f 59/1/1 53/1/1 58/1/1
f 60/1/1 57/1/1 56/1/1
f 61/1/1 57/1/1 60/1/1
f 62/2/2 63/2/2 64/2/2
f 64/2/2 63/2/2 65/2/2
f 66/1/2 67/1/2 70/1/2
f 70/1/2 67/1/2 71/1/2
f 68/1/2 69/1/2 72/1/2
f 72/1/2 69/1/2 73/1/2
f 74/2/2 75/2/2 76/2/2
f 76/2/2 75/2/2 77/2/2
f 78/2/2 79/2/2 80/2/2
f 80/2/2 79/2/2 81/2/2
f 82/2/2 83/2/2 87/2/2
f 87/2/2 83/2/2 88/2/2
f 84/2/2 85/2/2 89/2/2
f 89/2/2 85/2/2 90/2/2
f 86/1/2 87/1/2 92/1/2
f 92/1/2 87/1/2 93/1/2
f 90/1/2 91/1/2 94/1/2
f 94/1/2 91/1/2 95/1/2
f 96/1/2 97/1/2 100/1/2
f 100/1/2 97/1/2 101/1/2
f 98/1/2 99/1/2 102/1/2
f 102/1/2 99/1/2 103/1/2
f 101/1/2 102/1/2 104/1/2
f 104/1/2 102/1/2 105/1/2
f 106/2/2 107/2/2 108/2/2
f 108/2/2 107/2/2 109/2/2
f 109/2/2 107/2/2 110/2/2
f 110/2/2 107/2/2 111/2/2
f 109/2/2 110/2/2 113/2/2
f 113/2/2 110/2/2 114/2/2
f 112/1/2 113/1/2 117/1/2
f 117/1/2 113/1/2 118/1/2
f 114/1/2 115/1/2 119/1/2
f 119/1/2 115/1/2 120/1/2
f 116/1/2 117/1/2 122/1/2
f 122/1/2 117/1/2 123/1/2
f 120/1/2 121/1/2 124/1/2
f 124/1/2 121/1/2 125/1/2
f 123/1/2 124/1/2 126/1/2
f 126/1/2 124/1/2 127/1/2
f 128/1/2 129/1/2 131/1/2
f 131/1/2 129/1/2 132/1/2
f 130/1/2 131/1/2 134/1/2
f 132/1/2 133/1/2 134/1/2
f 131/1/2 132/1/2 134/1/2
f 134/1/2 133/1/2 135/1/2
f 141/1/3 137/1/3 136/1/3
f 142/2/3 139/2/3 138/2/3
f 143/2/3 139/2/3 142/2/3
f 145/1/3 141/1/3 140/1/3
f 146/1/3 137/1/3 141/1/3
f 146/1/3 141/1/3 145/1/3
f 147/1/3 137/1/3 146/1/3
f 148/2/3 139/2/3 143/2/3
f 149/2/3 139/2/3 148/2/3
f 150/1/3 145/1/3 144/1/3
f 150/1/3 146/1/3 145/1/3
f 151/1/3 146/1/3 150/1/3
f 152/1/3 146/1/3 151/1/3
f 153/1/3 146/1/3 152/1/3
f 154/1/3 152/1/3 151/1/3
f 155/1/3 152/1/3 154/1/3
f 161/1/3 157/1/3 156/1/3
f 162/1/3 157/1/3 161/1/3
f 164/2/3 159/2/3 158/2/3
f 165/2/3 159/2/3 164/2/3
f 169/1/3 161/1/3 160/1/3
f 170/1/3 161/1/3 169/1/3
f 173/2/3 167/2/3 166/2/3
f 173/2/3 164/2/3 163/2/3
f 173/2/3 165/2/3 164/2/3
f 173/2/3 166/2/3 165/2/3
f 174/2/3 169/2/3 168/2/3
f 175/2/3 173/2/3 163/2/3
f 175/2/3 174/2/3 173/2/3
f 176/2/3 174/2/3 175/2/3
f 177/2/3 174/2/3 176/2/3
f 178/2/3 169/2/3 174/2/3
f 178/2/3 174/2/3 177/2/3
f 181/1/3 172/1/3 171/1/3
f 182/1/3 172/1/3 181/1/3
f 183/2/3 177/2/3 176/2/3
f 184/2/3 177/2/3 183/2/3
f 185/1/3 179/1/3 178/1/3
f 186/1/3 179/1/3 185/1/3
f 187/1/3 181/1/3 180/1/3
f 188/1/3 181/1/3 187/1/3
f 189/1/3 187/1/3 186/1/3
f 190/1/3 187/1/3 189/1/3
f 194/1/3 192/1/3 191/1/3
f 195/1/3 192/1/3 194/1/3
f 196/2/3 194/2/3 193/2/3
f 197/2/3 194/2/3 196/2/3
f 200/2/3 199/2/3 198/2/3
f 201/2/3 199/2/3 200/2/3
f 203/1/3 202/1/3 201/1/3
f 204/1/3 202/1/3 203/1/3
f 205/2/4 206/2/4 207/2/4
f 207/2/4 206/2/4 208/2/4
f 209/2/4 210/2/4 211/2/4
f 211/2/4 210/2/4 212/2/4
f 213/1/4 214/1/4 216/1/4
f 216/1/4 214/1/4 217/1/4
f 215/2/4 216/2/4 218/2/4
f 218/2/4 216/2/4 219/2/4
f 220/2/4 221/2/4 222/2/4
f 222/2/4 221/2/4 223/2/4
f 223/1/4 224/1/4 225/1/4
f 225/1/4 224/1/4 226/1/4
f 227/1/4 228/1/4 232/1/4
f 232/1/4 228/1/4 233/1/4
f 229/2/4 230/2/4 235/2/4
f 235/2/4 230/2/4 236/2/4
f 231/1/4 232/1/4 237/1/4
f 237/1/4 232/1/4 238/1/4
f 235/2/4 236/2/4 241/2/4
f 236/2/4 237/2/4 241/2/4
f 234/2/4 235/2/4 241/2/4
f 241/2/4 237/2/4 242/2/4
f 242/2/4 237/2/4 243/2/4
f 243/2/4 237/2/4 244/2/4
f 239/1/4 240/1/4 247/1/4
f 247/1/4 240/1/4 248/1/4
f 242/2/4 243/2/4 249/2/4
f 249/2/4 243/2/4 250/2/4
f 244/1/4 245/1/4 251/1/4
f 251/1/4 245/1/4 252/1/4
f 246/1/4 247/1/4 253/1/4
f 253/1/4 247/1/4 254/1/4
f 252/1/4 253/1/4 255/1/4
f 255/1/4 253/1/4 256/1/4
f 257/1/4 258/1/4 260/1/4
f 259/1/4 260/1/4 262/1/4
f 260/1/4 258/1/4 263/1/4
f 262/1/4 260/1/4 263/1/4
f 263/1/4 258/1/4 264/1/4
f 261/1/4 262/1/4 265/1/4
f 262/1/4 263/1/4 265/1/4
f 265/1/4 263/1/4 266/1/4
f 266/1/4 263/1/4 267/1/4
f 267/1/4 263/1/4 268/1/4
f 266/1/4 267/1/4 269/1/4
f 269/1/4 267/1/4 270/1/4
f 273/2/5 272/2/5 271/2/5
f 274/2/5 272/2/5 273/2/5
f 279/2/5 276/2/5 275/2/5
f 280/2/5 276/2/5 279/2/5
f 281/2/5 278/2/5 277/2/5
f 282/2/5 278/2/5 281/2/5
f 285/2/5 284/2/5 283/2/5
f 286/2/5 284/2/5 285/2/5
f 289/2/5 288/2/5 287/2/5
f 290/2/5 288/2/5 289/2/5
f 293/2/5 292/2/5 291/2/5
f 294/2/5 292/2/5 293/2/5
f 297/2/5 296/2/5 295/2/5
f 298/2/5 296/2/5 297/2/5
f 302/1/5 300/1/5 299/1/5
f 303/1/5 300/1/5 302/1/5
f 306/1/5 302/1/5 301/1/5
f 307/1/5 302/1/5 306/1/5
f 308/1/5 304/1/5 303/1/5
f 309/1/5 304/1/5 308/1/5
f 311/1/5 306/1/5 305/1/5
f 312/1/5 306/1/5 311/1/5
f 315/1/5 310/1/5 309/1/5
f 316/1/5 310/1/5 315/1/5
f 317/1/5 313/1/5 312/1/5
f 318/1/5 313/1/5 317/1/5
f 319/1/5 315/1/5 314/1/5
f 320/1/5 315/1/5 319/1/5
f 321/1/5 319/1/5 318/1/5
f 322/1/5 319/1/5 321/1/5
f 328/1/5 324/1/5 323/1/5
f 329/1/5 324/1/5 328/1/5
f 330/1/5 326/1/5 325/1/5
f 331/1/5 326/1/5 330/1/5
f 333/1/5 328/1/5 327/1/5
f 334/1/5 328/1/5 333/1/5
f 335/1/5 332/1/5 331/1/5
f 336/1/5 332/1/5 335/1/5
f 341/1/5 338/1/5 337/1/5
f 342/1/5 338/1/5 341/1/5
f 345/1/5 340/1/5 339/1/5
f 346/1/5 340/1/5 345/1/5
f 347/1/5 343/1/5 342/1/5
f 348/1/5 343/1/5 347/1/5
f 349/1/5 345/1/5 344/1/5
f 350/1/5 345/1/5 349/1/5
f 353/1/5 352/1/5 351/1/5
f 354/1/5 352/1/5 353/1/5
f 357/1/5 356/1/5 355/1/5
f 358/1/5 356/1/5 357/1/5
f 359/2/6 360/2/6 361/2/6
f 361/2/6 360/2/6 362/2/6
f 363/2/6 364/2/6 365/2/6
f 365/2/6 364/2/6 366/2/6
f 367/2/6 368/2/6 369/2/6
f 369/2/6 368/2/6 370/2/6
f 371/2/6 372/2/6 373/2/6
f 373/2/6 372/2/6 374/2/6
f 371/2/6 373/2/6 375/2/6
f 375/2/6 373/2/6 376/2/6
f 377/1/6 378/1/6 379/1/6
f 379/1/6 378/1/6 380/1/6
f 380/1/6 381/1/6 383/1/6
f 383/1/6 381/1/6 384/1/6
f 382/1/6 383/1/6 385/1/6
f 385/1/6 383/1/6 386/1/6
f 387/1/6 388/1/6 389/1/6
f 389/1/6 388/1/6 390/1/6
f 390/1/6 391/1/6 393/1/6
f 393/1/6 391/1/6 394/1/6
f 392/1/6 393/1/6 395/1/6
f 395/1/6 393/1/6 396/1/6
f 397/1/6 398/1/6 399/1/6
f 397/1/6 399/1/6 401/1/6
f 399/1/6 400/1/6 401/1/6
f 401/1/6 400/1/6 402/1/6
f 397/1/6 401/1/6 403/1/6
f 403/1/6 401/1/6 404/1/6
