# MagicaVoxel @ Ephtracy

# group
o 

# material
mtllib mapa.mtl
usemtl palette

# normals
vn -1 0 0
vn 1 0 0
vn 0 0 1
vn 0 0 -1
vn 0 -1 0
vn 0 1 0

# texcoords
vt 0.00585938 0.5
vt 0.0449219 0.5
vt 0.861328 0.5

# verts
v -0.5 0 0.2
v -0.5 0 -0.3
v -0.5 2.6 0.2
v -0.5 2.6 -0.3
v -0.5 2.9 0.2
v -0.5 2.9 -0.3
v -0.5 5.4 0.2
v -0.5 5.4 -0.3
v -0.4 0 0.3
v -0.4 0 0.2
v -0.4 0 -0.3
v -0.4 0 -0.4
v -0.4 2.6 0.3
v -0.4 2.6 0.2
v -0.4 2.6 -0.3
v -0.4 2.6 -0.4
v -0.4 2.9 0.3
v -0.4 2.9 0.2
v -0.4 2.9 -0.3
v -0.4 2.9 -0.4
v -0.4 5.4 0.3
v -0.4 5.4 0.2
v -0.4 5.4 -0.3
v -0.4 5.4 -0.4
v -0.3 0 0.2
v -0.3 0 0.1
v -0.3 0 -0.2
v -0.3 0 -0.3
v -0.3 2.6 0.2
v -0.3 2.6 -0.3
v -0.3 2.9 0.2
v -0.3 2.9 -0.3
v -0.3 5.4 0.2
v -0.3 5.4 0.1
v -0.3 5.4 -0.2
v -0.3 5.4 -0.3
v -0.2 2.6 -0.4
v -0.2 2.6 -0.5
v -0.2 2.7 -0.4
v -0.2 2.7 -0.5
v -0.2 2.8 -0.4
v -0.2 2.8 -0.5
v -0.2 2.9 -0.4
v -0.2 2.9 -0.5
v -0.1 2.7 -0.4
v -0.1 2.7 -0.5
v -0.1 2.8 -0.4
v -0.1 2.8 -0.5
v 0 0 0.1
v 0 0 -0.2
v 0 5.4 0.1
v 0 5.4 -0.2
v 0.1 0 0.2
v 0.1 0 0.1
v 0.1 0 -0.2
v 0.1 0 -0.3
v 0.1 2.6 0.2
v 0.1 2.6 0.1
v 0.1 2.6 -0.2
v 0.1 2.6 -0.3
v 0.1 2.9 0.2
v 0.1 2.9 0.1
v 0.1 2.9 -0.2
v 0.1 2.9 -0.3
v 0.1 5.4 0.2
v 0.1 5.4 0.1
v 0.1 5.4 -0.2
v 0.1 5.4 -0.3
v -0.4 0 0.2
v -0.4 0 0.1
v -0.4 0 -0.2
v -0.4 0 -0.3
v -0.4 2.6 0.2
v -0.4 2.6 0.1
v -0.4 2.6 -0.2
v -0.4 2.6 -0.3
v -0.4 2.9 0.2
v -0.4 2.9 0.1
v -0.4 2.9 -0.2
v -0.4 2.9 -0.3
v -0.4 5.4 0.2
v -0.4 5.4 0.1
v -0.4 5.4 -0.2
v -0.4 5.4 -0.3
v -0.3 0 0.1
v -0.3 0 -0.2
v -0.3 5.4 0.1
v -0.3 5.4 -0.2
v 0 0 0.2
v 0 0 0.1
v 0 0 -0.2
v 0 0 -0.3
v 0 2.6 0.2
v 0 2.6 -0.3
v 0 2.9 0.2
v 0 2.9 -0.3
v 0 5.4 0.2
v 0 5.4 0.1
v 0 5.4 -0.2
v 0 5.4 -0.3
v 0.1 0 0.3
v 0.1 0 0.2
v 0.1 0 -0.3
v 0.1 0 -0.4
v 0.1 2.6 0.3
v 0.1 2.6 0.2
v 0.1 2.6 -0.3
v 0.1 2.6 -0.4
v 0.1 2.6 -0.5
v 0.1 2.9 0.3
v 0.1 2.9 0.2
v 0.1 2.9 -0.3
v 0.1 2.9 -0.4
v 0.1 2.9 -0.5
v 0.1 5.4 0.3
v 0.1 5.4 0.2
v 0.1 5.4 -0.3
v 0.1 5.4 -0.4
v 0.2 0 0.2
v 0.2 0 -0.3
v 0.2 2.6 0.2
v 0.2 2.6 -0.1
v 0.2 2.6 -0.3
v 0.2 2.6 -0.4
v 0.2 2.9 0.2
v 0.2 2.9 -0.1
v 0.2 2.9 -0.3
v 0.2 2.9 -0.4
v 0.2 5.4 0.2
v 0.2 5.4 -0.3
v 0.3 2.6 -0.1
v 0.3 2.6 -0.3
v 0.3 2.9 -0.1
v 0.3 2.9 -0.3
v -0.4 0 0.3
v -0.4 2.6 0.3
v -0.4 2.9 0.3
v -0.4 5.4 0.3
v 0.1 0 0.3
v 0.1 2.6 0.3
v 0.1 2.9 0.3
v 0.1 5.4 0.3
v -0.5 0 0.2
v -0.5 2.6 0.2
v -0.5 2.9 0.2
v -0.5 5.4 0.2
v -0.4 0 0.2
v -0.4 2.6 0.2
v -0.4 2.9 0.2
v -0.4 5.4 0.2
v 0.1 0 0.2
v 0.1 2.6 0.2
v 0.1 2.9 0.2
v 0.1 5.4 0.2
v 0.2 0 0.2
v 0.2 2.6 0.2
v 0.2 2.9 0.2
v 0.2 5.4 0.2
v -0.4 0 0.1
v -0.4 2.6 0.1
v -0.4 2.9 0.1
v -0.4 5.4 0.1
v -0.3 0 0.1
v -0.3 5.4 0.1
v 0 0 0.1
v 0 5.4 0.1
v 0.1 0 0.1
v 0.1 2.6 0.1
v 0.1 2.9 0.1
v 0.1 5.4 0.1
v 0.2 2.6 -0.1
v 0.2 2.9 -0.1
v 0.3 2.6 -0.1
v 0.3 2.9 -0.1
v -0.3 0 -0.2
v -0.3 5.4 -0.2
v 0 0 -0.2
v 0 5.4 -0.2
v -0.4 0 -0.3
v -0.4 2.6 -0.3
v -0.4 2.9 -0.3
v -0.4 5.4 -0.3
v -0.3 0 -0.3
v -0.3 2.6 -0.3
v -0.3 2.9 -0.3
v -0.3 5.4 -0.3
v 0 0 -0.3
v 0 2.6 -0.3
v 0 2.9 -0.3
v 0 5.4 -0.3
v 0.1 0 -0.3
v 0.1 2.6 -0.3
v 0.1 2.9 -0.3
v 0.1 5.4 -0.3
v -0.4 0 0.2
v -0.4 2.6 0.2
v -0.4 2.9 0.2
v -0.4 5.4 0.2
v -0.3 0 0.2
v -0.3 2.6 0.2
v -0.3 2.9 0.2
v -0.3 5.4 0.2
v 0 0 0.2
v 0 2.6 0.2
v 0 2.9 0.2
v 0 5.4 0.2
v 0.1 0 0.2
v 0.1 2.6 0.2
v 0.1 2.9 0.2
v 0.1 5.4 0.2
v -0.3 0 0.1
v -0.3 5.4 0.1
v 0 0 0.1
v 0 5.4 0.1
v -0.4 0 -0.2
v -0.4 2.6 -0.2
v -0.4 2.9 -0.2
v -0.4 5.4 -0.2
v -0.3 0 -0.2
v -0.3 5.4 -0.2
v 0 0 -0.2
v 0 5.4 -0.2
v 0.1 0 -0.2
v 0.1 2.6 -0.2
v 0.1 2.9 -0.2
v 0.1 5.4 -0.2
v -0.5 0 -0.3
v -0.5 2.6 -0.3
v -0.5 2.9 -0.3
v -0.5 5.4 -0.3
v -0.4 0 -0.3
v -0.4 2.6 -0.3
v -0.4 2.9 -0.3
v -0.4 5.4 -0.3
v 0.1 0 -0.3
v 0.1 2.6 -0.3
v 0.1 2.9 -0.3
v 0.1 5.4 -0.3
v 0.2 0 -0.3
v 0.2 2.6 -0.3
v 0.2 2.9 -0.3
v 0.2 5.4 -0.3
v 0.3 2.6 -0.3
v 0.3 2.9 -0.3
v -0.4 0 -0.4
v -0.4 2.6 -0.4
v -0.4 2.9 -0.4
v -0.4 5.4 -0.4
v -0.2 2.6 -0.4
v -0.2 2.7 -0.4
v -0.2 2.8 -0.4
v -0.2 2.9 -0.4
v -0.1 2.7 -0.4
v -0.1 2.8 -0.4
v 0.1 0 -0.4
v 0.1 2.6 -0.4
v 0.1 2.9 -0.4
v 0.1 5.4 -0.4
v 0.2 2.6 -0.4
v 0.2 2.9 -0.4
v -0.2 2.6 -0.5
v -0.2 2.7 -0.5
v -0.2 2.8 -0.5
v -0.2 2.9 -0.5
v -0.1 2.7 -0.5
v -0.1 2.8 -0.5
v 0.1 2.6 -0.5
v 0.1 2.9 -0.5
v -0.4 0 0.3
v 0.1 0 0.3
v -0.5 0 0.2
v -0.4 0 0.2
v -0.3 0 0.2
v 0 0 0.2
v 0.1 0 0.2
v 0.2 0 0.2
v -0.4 0 0.1
v -0.3 0 0.1
v 0 0 0.1
v 0.1 0 0.1
v -0.4 0 -0.2
v -0.3 0 -0.2
v 0 0 -0.2
v 0.1 0 -0.2
v -0.5 0 -0.3
v -0.4 0 -0.3
v -0.3 0 -0.3
v 0 0 -0.3
v 0.1 0 -0.3
v 0.2 0 -0.3
v -0.4 0 -0.4
v 0.1 0 -0.4
v 0.2 2.6 -0.1
v 0.3 2.6 -0.1
v 0.1 2.6 -0.3
v 0.2 2.6 -0.3
v 0.3 2.6 -0.3
v -0.2 2.6 -0.4
v 0.1 2.6 -0.4
v 0.2 2.6 -0.4
v -0.2 2.6 -0.5
v 0.1 2.6 -0.5
v -0.2 2.8 -0.4
v -0.1 2.8 -0.4
v -0.2 2.8 -0.5
v -0.1 2.8 -0.5
v -0.2 2.7 -0.4
v -0.1 2.7 -0.4
v -0.2 2.7 -0.5
v -0.1 2.7 -0.5
v 0.2 2.9 -0.1
v 0.3 2.9 -0.1
v 0.1 2.9 -0.3
v 0.2 2.9 -0.3
v 0.3 2.9 -0.3
v -0.2 2.9 -0.4
v 0.1 2.9 -0.4
v 0.2 2.9 -0.4
v -0.2 2.9 -0.5
v 0.1 2.9 -0.5
v -0.4 5.4 0.3
v 0.1 5.4 0.3
v -0.5 5.4 0.2
v -0.4 5.4 0.2
v -0.3 5.4 0.2
v 0 5.4 0.2
v 0.1 5.4 0.2
v 0.2 5.4 0.2
v -0.4 5.4 0.1
v -0.3 5.4 0.1
v 0 5.4 0.1
v 0.1 5.4 0.1
v -0.4 5.4 -0.2
v -0.3 5.4 -0.2
v 0 5.4 -0.2
v 0.1 5.4 -0.2
v -0.5 5.4 -0.3
v -0.4 5.4 -0.3
v -0.3 5.4 -0.3
v 0 5.4 -0.3
v 0.1 5.4 -0.3
v 0.2 5.4 -0.3
v -0.4 5.4 -0.4
v 0.1 5.4 -0.4

# faces
f 3/1/1 2/1/1 1/1/1
f 4/1/1 2/1/1 3/1/1
f 5/3/1 4/3/1 3/3/1
f 6/3/1 4/3/1 5/3/1
f 7/1/1 6/1/1 5/1/1
f 8/1/1 6/1/1 7/1/1
f 13/1/1 10/1/1 9/1/1
f 14/1/1 10/1/1 13/1/1
f 15/1/1 12/1/1 11/1/1
f 16/1/1 12/1/1 15/1/1
f 17/3/1 14/3/1 13/3/1
f 18/3/1 14/3/1 17/3/1
f 19/3/1 16/3/1 15/3/1
f 20/3/1 16/3/1 19/3/1
f 21/1/1 18/1/1 17/1/1
f 22/1/1 18/1/1 21/1/1
f 23/1/1 20/1/1 19/1/1
f 24/1/1 20/1/1 23/1/1
f 29/1/1 26/1/1 25/1/1
f 30/1/1 28/1/1 27/1/1
f 31/1/1 26/1/1 29/1/1
f 32/1/1 30/1/1 27/1/1
f 33/1/1 26/1/1 31/1/1
f 34/1/1 26/1/1 33/1/1
f 35/1/1 32/1/1 27/1/1
f 36/1/1 32/1/1 35/1/1
f 39/3/1 38/3/1 37/3/1
f 40/3/1 38/3/1 39/3/1
f 43/3/1 42/3/1 41/3/1
f 44/3/1 42/3/1 43/3/1
f 47/3/1 46/3/1 45/3/1
f 48/3/1 46/3/1 47/3/1
f 51/1/1 50/1/1 49/1/1
f 52/1/1 50/1/1 51/1/1
f 57/1/1 54/1/1 53/1/1
f 58/1/1 54/1/1 57/1/1
f 59/1/1 56/1/1 55/1/1
f 60/1/1 56/1/1 59/1/1
f 61/3/1 58/3/1 57/3/1
f 62/3/1 58/3/1 61/3/1
f 63/3/1 60/3/1 59/3/1
f 64/3/1 60/3/1 63/3/1
f 65/1/1 62/1/1 61/1/1
f 66/1/1 62/1/1 65/1/1
f 67/1/1 64/1/1 63/1/1
f 68/1/1 64/1/1 67/1/1
f 69/1/2 70/1/2 73/1/2
f 73/1/2 70/1/2 74/1/2
f 71/1/2 72/1/2 75/1/2
f 75/1/2 72/1/2 76/1/2
f 73/3/2 74/3/2 77/3/2
f 77/3/2 74/3/2 78/3/2
f 75/3/2 76/3/2 79/3/2
f 79/3/2 76/3/2 80/3/2
f 77/1/2 78/1/2 81/1/2
f 81/1/2 78/1/2 82/1/2
f 79/1/2 80/1/2 83/1/2
f 83/1/2 80/1/2 84/1/2
f 85/1/2 86/1/2 87/1/2
f 87/1/2 86/1/2 88/1/2
f 89/1/2 90/1/2 93/1/2
f 91/1/2 92/1/2 94/1/2
f 93/1/2 90/1/2 95/1/2
f 91/1/2 94/1/2 96/1/2
f 95/1/2 90/1/2 97/1/2
f 97/1/2 90/1/2 98/1/2
f 91/1/2 96/1/2 99/1/2
f 99/1/2 96/1/2 100/1/2
f 101/1/2 102/1/2 105/1/2
f 105/1/2 102/1/2 106/1/2
f 103/1/2 104/1/2 107/1/2
f 107/1/2 104/1/2 108/1/2
f 105/3/2 106/3/2 110/3/2
f 110/3/2 106/3/2 111/3/2
f 108/3/2 109/3/2 113/3/2
f 113/3/2 109/3/2 114/3/2
f 110/1/2 111/1/2 115/1/2
f 115/1/2 111/1/2 116/1/2
f 112/1/2 113/1/2 117/1/2
f 117/1/2 113/1/2 118/1/2
f 119/1/2 120/1/2 121/1/2
f 121/1/2 120/1/2 122/1/2
f 122/1/2 120/1/2 123/1/2
f 121/3/2 122/3/2 125/3/2
f 125/3/2 122/3/2 126/3/2
f 123/3/2 124/3/2 127/3/2
f 127/3/2 124/3/2 128/3/2
f 125/1/2 126/1/2 129/1/2
f 126/1/2 127/1/2 129/1/2
f 129/1/2 127/1/2 130/1/2
f 131/2/2 132/2/2 133/2/2
f 133/2/2 132/2/2 134/2/2
f 139/1/3 136/1/3 135/1/3
f 140/3/3 137/3/3 136/3/3
f 140/1/3 136/1/3 139/1/3
f 141/1/3 138/1/3 137/1/3
f 141/3/3 137/3/3 140/3/3
f 142/1/3 138/1/3 141/1/3
f 147/1/3 144/1/3 143/1/3
f 148/3/3 145/3/3 144/3/3
f 148/1/3 144/1/3 147/1/3
f 149/1/3 146/1/3 145/1/3
f 149/3/3 145/3/3 148/3/3
f 150/1/3 146/1/3 149/1/3
f 155/1/3 152/1/3 151/1/3
f 156/3/3 153/3/3 152/3/3
f 156/1/3 152/1/3 155/1/3
f 157/1/3 154/1/3 153/1/3
f 157/3/3 153/3/3 156/3/3
f 158/1/3 154/1/3 157/1/3
f 163/1/3 160/1/3 159/1/3
f 163/1/3 162/1/3 161/1/3
f 163/1/3 161/1/3 160/1/3
f 164/1/3 162/1/3 163/1/3
f 167/1/3 166/1/3 165/1/3
f 168/1/3 166/1/3 167/1/3
f 169/1/3 166/1/3 168/1/3
f 170/1/3 166/1/3 169/1/3
f 173/2/3 172/2/3 171/2/3
f 174/2/3 172/2/3 173/2/3
f 177/1/3 176/1/3 175/1/3
f 178/1/3 176/1/3 177/1/3
f 183/1/3 180/1/3 179/1/3
f 184/3/3 181/3/3 180/3/3
f 184/1/3 180/1/3 183/1/3
f 185/1/3 182/1/3 181/1/3
f 185/3/3 181/3/3 184/3/3
f 186/1/3 182/1/3 185/1/3
f 191/1/3 188/1/3 187/1/3
f 192/3/3 189/3/3 188/3/3
f 192/1/3 188/1/3 191/1/3
f 193/1/3 190/1/3 189/1/3
f 193/3/3 189/3/3 192/3/3
f 194/1/3 190/1/3 193/1/3
f 195/1/4 196/1/4 199/1/4
f 196/3/4 197/3/4 200/3/4
f 199/1/4 196/1/4 200/1/4
f 197/1/4 198/1/4 201/1/4
f 200/3/4 197/3/4 201/3/4
f 201/1/4 198/1/4 202/1/4
f 203/1/4 204/1/4 207/1/4
f 204/3/4 205/3/4 208/3/4
f 207/1/4 204/1/4 208/1/4
f 205/1/4 206/1/4 209/1/4
f 208/3/4 205/3/4 209/3/4
f 209/1/4 206/1/4 210/1/4
f 211/1/4 212/1/4 213/1/4
f 213/1/4 212/1/4 214/1/4
f 215/1/4 216/1/4 219/1/4
f 217/1/4 218/1/4 219/1/4
f 216/1/4 217/1/4 219/1/4
f 219/1/4 218/1/4 220/1/4
f 221/1/4 222/1/4 223/1/4
f 223/1/4 222/1/4 224/1/4
f 224/1/4 222/1/4 225/1/4
f 225/1/4 222/1/4 226/1/4
f 227/1/4 228/1/4 231/1/4
f 228/3/4 229/3/4 232/3/4
f 231/1/4 228/1/4 232/1/4
f 229/1/4 230/1/4 233/1/4
f 232/3/4 229/3/4 233/3/4
f 233/1/4 230/1/4 234/1/4
f 235/1/4 236/1/4 239/1/4
f 239/1/4 236/1/4 240/1/4
f 237/1/4 238/1/4 241/1/4
f 241/1/4 238/1/4 242/1/4
f 240/2/4 241/2/4 243/2/4
f 243/2/4 241/2/4 244/2/4
f 245/1/4 246/1/4 249/1/4
f 246/3/4 247/3/4 249/3/4
f 249/3/4 247/3/4 250/3/4
f 250/3/4 247/3/4 251/3/4
f 247/1/4 248/1/4 252/1/4
f 251/3/4 247/3/4 252/3/4
f 250/3/4 251/3/4 253/3/4
f 253/3/4 251/3/4 254/3/4
f 245/1/4 249/1/4 255/1/4
f 255/1/4 249/1/4 256/1/4
f 252/1/4 248/1/4 257/1/4
f 257/1/4 248/1/4 258/1/4
f 256/3/4 257/3/4 259/3/4
f 259/3/4 257/3/4 260/3/4
f 261/3/4 262/3/4 265/3/4
f 263/3/4 264/3/4 266/3/4
f 261/3/4 265/3/4 267/3/4
f 265/3/4 266/3/4 267/3/4
f 266/3/4 264/3/4 268/3/4
f 267/3/4 266/3/4 268/3/4
f 272/1/5 270/1/5 269/1/5
f 273/1/5 270/1/5 272/1/5
f 274/1/5 270/1/5 273/1/5
f 275/1/5 270/1/5 274/1/5
f 277/1/5 272/1/5 271/1/5
f 278/1/5 274/1/5 273/1/5
f 279/1/5 274/1/5 278/1/5
f 280/1/5 276/1/5 275/1/5
f 281/1/5 277/1/5 271/1/5
f 281/1/5 278/1/5 277/1/5
f 282/1/5 278/1/5 281/1/5
f 283/1/5 280/1/5 279/1/5
f 284/1/5 276/1/5 280/1/5
f 284/1/5 280/1/5 283/1/5
f 285/1/5 281/1/5 271/1/5
f 286/1/5 281/1/5 285/1/5
f 287/1/5 283/1/5 282/1/5
f 288/1/5 283/1/5 287/1/5
f 289/1/5 276/1/5 284/1/5
f 290/1/5 276/1/5 289/1/5
f 291/1/5 288/1/5 287/1/5
f 291/1/5 289/1/5 288/1/5
f 291/1/5 287/1/5 286/1/5
f 292/1/5 289/1/5 291/1/5
f 296/2/5 294/2/5 293/2/5
f 297/2/5 294/2/5 296/2/5
f 299/3/5 296/3/5 295/3/5
f 300/3/5 296/3/5 299/3/5
f 301/3/5 299/3/5 298/3/5
f 302/3/5 299/3/5 301/3/5
f 305/3/5 304/3/5 303/3/5
f 306/3/5 304/3/5 305/3/5
f 307/3/6 308/3/6 309/3/6
f 309/3/6 308/3/6 310/3/6
f 311/2/6 312/2/6 314/2/6
f 314/2/6 312/2/6 315/2/6
f 313/3/6 314/3/6 317/3/6
f 317/3/6 314/3/6 318/3/6
f 316/3/6 317/3/6 319/3/6
f 319/3/6 317/3/6 320/3/6
f 321/1/6 322/1/6 324/1/6
f 324/1/6 322/1/6 325/1/6
f 325/1/6 322/1/6 326/1/6
f 326/1/6 322/1/6 327/1/6
f 323/1/6 324/1/6 329/1/6
f 325/1/6 326/1/6 330/1/6
f 330/1/6 326/1/6 331/1/6
f 327/1/6 328/1/6 332/1/6
f 323/1/6 329/1/6 333/1/6
f 329/1/6 330/1/6 333/1/6
f 333/1/6 330/1/6 334/1/6
f 331/1/6 332/1/6 335/1/6
f 332/1/6 328/1/6 336/1/6
f 335/1/6 332/1/6 336/1/6
f 323/1/6 333/1/6 337/1/6
f 337/1/6 333/1/6 338/1/6
f 334/1/6 335/1/6 339/1/6
f 339/1/6 335/1/6 340/1/6
f 336/1/6 328/1/6 341/1/6
f 341/1/6 328/1/6 342/1/6
f 339/1/6 340/1/6 343/1/6
f 340/1/6 341/1/6 343/1/6
f 338/1/6 339/1/6 343/1/6
f 343/1/6 341/1/6 344/1/6
